<svg width="305" height="88" viewBox="0 0 305 88" fill="none" xmlns="http://www.w3.org/2000/svg">
<path fill-rule="evenodd" clip-rule="evenodd" d="M135.77 69.8925H137.477C138.557 69.8925 139.093 69.344 139.093 68.5761C139.093 67.4628 138.409 67.1593 137.411 67.1593H135.77V69.8925ZM133.997 65.9279H137.683C139.852 65.9279 140.924 67.0663 140.924 68.5761C140.924 70.1199 139.629 71.1323 137.816 71.1323H135.77V73.7971H133.997V65.9279ZM146.498 67.3621H146.474L145.187 70.9543H147.768L146.498 67.3621ZM145.475 65.9278H147.492L150.588 73.7974H148.762L148.231 72.2706H144.725L144.206 73.7974H142.392L145.475 65.9278ZM154.448 69.5883H156.361C157.226 69.5883 157.87 69.1493 157.87 68.4074C157.87 67.6905 157.301 67.2266 156.084 67.2266H154.448V69.5883ZM152.716 65.9277H156.567C158.521 65.9277 159.692 66.9316 159.692 68.2894C159.692 70.0612 158.299 70.4827 157.853 70.6172L159.915 73.7973H157.899L156.113 70.9046H154.448V73.7973H152.716V65.9277ZM162.277 73.7971V65.9276H164.005V73.7971H162.277ZM167.732 71.4273C168.383 72.2367 169.381 72.6167 170.519 72.6167C171.369 72.6167 172.482 72.3887 172.482 71.6128C172.482 70.9969 171.798 70.8199 170.576 70.5754L169.547 70.3729C168.062 70.1025 166.767 69.6225 166.767 68.1797C166.767 66.5269 168.631 65.725 170.354 65.725C171.937 65.725 173.236 66.2229 174.204 67.3023L172.77 68.2222C172.333 67.5218 171.476 67.1003 170.346 67.1003C169.348 67.1003 168.589 67.4212 168.589 67.9687C168.589 68.6266 169.455 68.7706 170.494 68.9726L171.628 69.1755C172.992 69.4361 174.288 69.909 174.288 71.4013C174.288 73.3251 172.16 74 170.239 74C168.713 74 167.134 73.4176 166.239 72.3382L167.732 71.4273ZM193.039 33.5519H204.542L198.799 21.8357L193.039 33.5519ZM201.202 18.3436L213.538 43.1333H209.283L206.075 36.7608H191.431L188.305 43.1333H184.001L196.457 18.3436H201.202ZM70.0171 18.3438H73.3896V40.447H92.025V43.1329H70.0171V18.3438ZM89.2052 18.3438H92.8416L88.2321 27.1158H85.7087L89.2052 18.3438ZM110.859 42.0703C117.984 42.0703 123.636 36.0315 123.636 29.6047C123.636 24.2738 119.608 17.1839 110.859 17.1249C105.672 17.0871 98.6797 21.5666 98.6797 29.6047C98.6797 36.8999 104.559 42.0703 110.859 42.0703ZM110.859 14C121.728 14 127.565 21.6846 127.565 29.6047C127.565 37.0859 121.982 45.166 110.859 45.166C101.549 45.166 94.569 38.6717 94.569 29.6047C94.569 20.5117 102.526 14 110.859 14ZM147.455 29.7687C147.455 29.7687 152.172 30.0307 152.172 25.463C152.172 21.1865 147.455 21.2917 147.455 21.2917L135.387 21.279V29.7687H147.455ZM149.891 32.7417L157.202 43.133H152.909L145.476 32.7417H135.424V43.133H131.994V18.3438L148.428 18.3438C148.428 18.3438 155.924 18.2423 155.924 25.4842C155.924 30.9836 149.891 32.7417 149.891 32.7417ZM216.284 18.3733L219.665 18.3818V40.485H238.293V43.1591H216.284V18.3733ZM162.042 18.3649L183.499 18.3437V21.0641H165.712V28.9795H179.104V31.8094H165.712V40.4045H183.489V43.1249H162.042V18.3649ZM173.178 14.3247H179.165L170.42 17.5213L173.178 14.3247ZM93.9798 53.0482C93.9798 54.0096 93.0353 54.3046 91.6999 54.3046H88.4715V51.7706H91.6999C93.0353 51.7706 93.9798 52.0656 93.9798 53.0482ZM78.3621 51.7705C79.6896 51.7705 80.2294 52.2085 80.2294 53.0222C80.2294 53.9081 79.3805 54.2795 78.1559 54.2795H74.8494V51.7705H78.3621ZM176.275 51.5253C178.41 51.5253 179.384 52.9715 179.384 54.5913C179.384 56.2276 178.41 57.6869 176.275 57.6869C174.131 57.6869 173.157 56.2276 173.157 54.5913C173.157 52.9715 174.131 51.5253 176.275 51.5253ZM105.095 51.5253C107.235 51.5253 108.212 52.9715 108.212 54.5913C108.212 56.2276 107.235 57.6869 105.095 57.6869C102.967 57.6869 101.995 56.2276 101.995 54.5913C101.995 52.9715 102.967 51.5253 105.095 51.5253ZM235.184 58.2777V57.4258H229.791V50.8932H228.352V58.2777H235.184ZM222.774 58.2777V57.4258H216.457V54.904H221.817V54.0262H216.457V51.7706H222.634V50.8932H215.03V58.2777H222.774ZM208.83 58.2777V50.8932H207.486V56.7338H207.461L201.73 50.8932H200.287V58.2777H201.611V52.4701H201.656L207.383 58.2777H208.83ZM194.082 58.2777V50.8932H192.734V56.7338H192.701L187.002 50.8932H185.543V58.2777H186.879V52.4701H186.904L192.635 58.2777H194.082ZM176.275 58.4797C178.971 58.4797 180.628 56.9023 180.628 54.5911C180.628 52.3016 178.971 50.7328 176.275 50.7328C173.586 50.7328 171.929 52.3016 171.929 54.5911C171.929 56.9023 173.586 58.4797 176.275 58.4797ZM164.607 58.2777H166.041V50.8932H164.607V58.2777ZM154.58 58.3956C156.74 58.3956 158.521 57.7797 158.521 56.2274C158.521 53.8067 153.887 54.1276 153.887 52.7193C153.887 51.9641 154.909 51.7366 155.759 51.7366C156.566 51.7366 156.996 51.8376 157.804 52.0491L158.01 51.0782C157.268 50.8932 156.41 50.8083 155.692 50.8083C153.755 50.8083 152.237 51.5087 152.237 52.8123C152.237 55.089 156.88 54.6421 156.88 56.2699C156.88 57.1473 155.652 57.4767 154.761 57.4767C153.974 57.4767 153.038 57.2823 152.518 57.1218L152.37 58.1007C153.079 58.2517 153.821 58.3956 154.58 58.3956ZM142.738 58.3956C144.894 58.3956 146.663 57.7797 146.663 56.2274C146.663 53.8067 142.037 54.1276 142.037 52.7193C142.037 51.9641 143.064 51.7366 143.933 51.7366C144.725 51.7366 145.155 51.8376 145.962 52.0491L146.161 51.0782C145.427 50.8932 144.577 50.8083 143.868 50.8083C141.913 50.8083 140.405 51.5087 140.405 52.8123C140.405 55.089 145.027 54.6421 145.027 56.2699C145.027 57.1473 143.793 57.4767 142.915 57.4767C142.136 57.4767 141.212 57.2823 140.669 57.1218L140.512 58.1007C141.233 58.2517 141.971 58.3956 142.738 58.3956ZM135.168 58.2777V57.4258H128.843V54.904H134.199V54.0262H128.843V51.7706H135.02V50.8932H127.426V58.2777H135.168ZM121.299 51.7706V50.8932H114.359V58.2777H115.799V54.8106H120.89V53.9506H115.799V51.7706H121.299ZM105.095 58.4797C107.791 58.4797 109.449 56.9023 109.449 54.5911C109.449 52.3016 107.791 50.7328 105.095 50.7328C102.394 50.7328 100.741 52.3016 100.741 54.5911C100.741 56.9023 102.394 58.4797 105.095 58.4797ZM94.1529 58.2777H95.8841L92.9071 55.089C94.7712 54.904 95.4227 53.9837 95.4227 53.0482C95.4227 51.3652 93.6417 50.8932 91.9349 50.8932H87.0408V58.2777H88.4716V55.1565H91.2502L94.1529 58.2777ZM78.7082 55.1315C80.1178 55.1315 81.64 54.4731 81.64 53.0482C81.64 51.4332 80.1427 50.8932 78.8281 50.8932H73.4389V58.2777H74.8494V55.1315H78.7082ZM70 61.2633V47.9071H238.227V61.2633H70Z" fill="#231F20"/>
</svg>
