<?xml version="1.0" standalone="no"?>
<!DOCTYPE svg PUBLIC "-//W3C//DTD SVG 20010904//EN"
 "http://www.w3.org/TR/2001/REC-SVG-20010904/DTD/svg10.dtd">
<svg version="1.0" xmlns="http://www.w3.org/2000/svg"
 width="438.000000pt" height="438.000000pt" viewBox="0 0 438.000000 438.000000"
 preserveAspectRatio="xMidYMid meet">

<g transform="translate(0.000000,438.000000) scale(0.100000,-0.100000)"
fill="#000000" stroke="none">
<path d="M2655 2920 c16 -54 59 -126 106 -176 52 -54 59 -59 226 -167 65 -42
113 -81 133 -108 36 -51 38 -45 6 19 -39 77 -99 136 -227 222 -146 99 -184
131 -222 190 -18 29 -26 36 -22 20z"/>
<path d="M2320 2820 c59 -83 152 -156 251 -196 33 -14 117 -38 187 -54 225
-53 289 -77 346 -129 l29 -26 -22 33 c-33 48 -115 110 -196 148 -38 19 -147
54 -242 78 -195 51 -260 78 -329 139 l-48 42 24 -35z"/>
<path d="M1995 2565 c41 -35 178 -103 245 -120 101 -28 229 -29 445 -5 208 23
290 21 368 -6 22 -8 42 -13 44 -11 8 9 -158 78 -222 93 -72 17 -75 17 -535 -2
-172 -7 -243 4 -330 51 l-45 25 30 -25z"/>
<path d="M930 2230 l0 -160 25 0 c24 0 25 2 25 70 l0 70 66 0 c57 0 65 2 62
18 -3 14 -16 18 -66 20 l-62 3 0 49 0 50 70 0 c63 0 70 2 70 20 0 19 -7 20
-95 20 l-95 0 0 -160z"/>
<path d="M1220 2230 l0 -160 100 0 c93 0 100 1 100 20 0 18 -7 20 -80 20 l-80
0 0 140 c0 133 -1 140 -20 140 -19 0 -20 -7 -20 -160z"/>
<path d="M1600 2382 c-87 -41 -124 -143 -84 -228 23 -49 68 -77 129 -82 99 -8
165 47 173 144 5 59 -19 114 -66 149 -27 20 -123 31 -152 17z m119 -47 c30
-15 61 -69 61 -105 0 -36 -31 -90 -61 -105 -61 -32 -136 -8 -164 51 -19 41
-19 68 1 110 28 59 102 81 163 49z"/>
<path d="M1914 2328 c13 -35 42 -110 64 -168 l40 -105 17 38 c8 21 27 63 41
95 l25 57 35 -90 c19 -49 36 -91 38 -92 2 -2 28 63 59 144 30 81 59 156 63
166 6 16 3 18 -17 15 -21 -3 -29 -18 -60 -106 -20 -56 -38 -105 -41 -107 -3
-3 -24 44 -48 105 -33 85 -47 110 -62 110 -22 0 -22 -7 -3 -53 14 -35 14 -40
-13 -108 l-29 -71 -40 113 c-36 103 -43 114 -66 117 l-27 3 24 -63z"/>
<path d="M2390 2230 l0 -160 100 0 c93 0 100 1 100 20 0 18 -7 20 -80 20 l-80
0 0 140 c0 133 -1 140 -20 140 -19 0 -20 -7 -20 -160z"/>
<path d="M2690 2230 l0 -160 105 0 c98 0 105 1 105 20 0 18 -7 20 -85 20 l-85
0 0 50 0 50 75 0 c68 0 75 2 75 20 0 18 -7 20 -75 20 l-75 0 0 50 0 50 80 0
c73 0 80 2 80 20 0 19 -7 20 -100 20 l-100 0 0 -160z"/>
<path d="M3028 2374 c-15 -8 -31 -26 -34 -41 -12 -47 7 -76 76 -113 51 -28 66
-41 68 -61 2 -14 -4 -31 -12 -38 -19 -16 -77 -17 -105 -2 -24 13 -41 7 -41
-14 0 -18 53 -35 107 -35 58 0 93 33 93 88 0 50 -13 65 -82 97 -59 28 -75 52
-53 81 10 14 22 16 68 11 40 -4 57 -2 60 8 13 32 -95 46 -145 19z"/>
<path d="M3299 2361 c-31 -32 -34 -45 -19 -86 7 -17 26 -33 57 -47 27 -11 56
-27 66 -36 21 -18 22 -55 2 -72 -19 -15 -76 -16 -105 0 -18 10 -24 9 -31 -1
-14 -24 17 -42 78 -47 48 -3 63 0 85 17 14 12 29 34 33 49 10 49 -9 78 -77
114 -51 27 -64 38 -66 60 -4 32 20 42 88 36 50 -4 66 16 25 32 -52 20 -104 12
-136 -19z"/>
<path d="M1600 1950 c0 -33 3 -40 19 -40 26 0 32 12 25 49 -5 21 -12 31 -25
31 -15 0 -19 -8 -19 -40z m30 20 c0 -5 -4 -10 -10 -10 -5 0 -10 5 -10 10 0 6
5 10 10 10 6 0 10 -4 10 -10z m8 -38 c2 -7 -3 -12 -12 -12 -9 0 -16 7 -16 16
0 17 22 14 28 -4z"/>
<path d="M1680 1950 c0 -37 2 -40 28 -39 23 2 24 2 5 6 -27 5 -31 30 -5 36 16
4 16 5 0 6 -26 2 -22 19 5 24 19 4 18 4 -5 6 -26 1 -28 -2 -28 -39z"/>
<path d="M1775 1961 c-9 -18 -14 -38 -11 -44 3 -9 5 -9 5 1 1 6 10 12 20 12
11 0 21 -6 24 -12 2 -7 6 -11 9 -8 3 3 -3 23 -12 44 l-18 39 -17 -32z m25 -11
c0 -5 -4 -10 -10 -10 -5 0 -10 5 -10 10 0 6 5 10 10 10 6 0 10 -4 10 -10z"/>
<path d="M1851 1965 c-1 -39 12 -58 35 -53 14 2 19 12 20 38 l1 35 -4 -33 c-6
-46 -36 -40 -44 8 -6 34 -6 34 -8 5z"/>
<path d="M1947 1982 c6 -4 13 -23 16 -42 l4 -35 1 37 c1 20 8 39 15 41 6 3 -1
6 -18 6 -17 0 -25 -3 -18 -7z"/>
<path d="M2037 1954 l18 -41 12 36 c16 46 16 49 -1 25 -15 -19 -15 -19 -30 1
-13 16 -13 12 1 -21z"/>
<path d="M2160 1976 c0 -7 10 -20 23 -29 l22 -15 -25 -10 c-24 -10 -24 -11 -3
-11 32 -1 39 20 14 40 -12 10 -20 23 -16 29 3 5 1 10 -4 10 -6 0 -11 -6 -11
-14z"/>
<path d="M2241 1976 c-16 -19 -11 -46 12 -60 25 -16 52 4 52 40 0 24 -5 30
-26 32 -14 2 -31 -4 -38 -12z m57 -24 c4 -28 -24 -40 -45 -19 -21 21 -9 49 19
45 15 -2 24 -11 26 -26z"/>
<path d="M2352 1953 c-2 -41 -1 -43 26 -42 22 1 23 2 5 6 -17 3 -23 13 -26 41
l-4 37 -1 -42z"/>
<path d="M2421 1964 c0 -18 6 -37 15 -45 24 -19 49 1 51 42 l1 34 -6 -35 c-5
-26 -12 -35 -27 -35 -15 0 -22 9 -26 35 l-6 35 -2 -31z"/>
<path d="M2527 1982 c6 -4 13 -23 16 -42 l4 -35 1 37 c1 20 8 39 15 41 6 3 -1
6 -18 6 -17 0 -25 -3 -18 -7z"/>
<path d="M2603 1950 c0 -25 2 -35 4 -22 2 12 2 32 0 45 -2 12 -4 2 -4 -23z"/>
<path d="M2644 1976 c-15 -40 21 -80 54 -60 37 24 21 74 -25 74 -13 0 -26 -6
-29 -14z m61 -6 c3 -6 3 -19 0 -31 -10 -31 -49 -21 -53 14 -3 23 0 27 22 27
14 0 28 -5 31 -10z"/>
<path d="M2752 1949 c1 -38 2 -40 5 -10 l4 33 30 -28 29 -28 -1 40 c-2 32 -3
34 -6 10 l-5 -28 -29 28 -29 28 2 -45z"/>
</g>
</svg>
